<svg version="1.1" id="Layer_1" xmlns="http://www.w3.org/2000/svg" x="0" y="0" viewBox="0 0 874 249.8" width="874" height="249.8" xml:space="preserve"><style type="text/css">.st0{fill:#fad232}.st1{fill:#1cc7e6}</style><path class="st0" d="M181.1 99.7c0-24 10.5-34.3 32.8-34.3h91.6c17.3 0 25 8.5 25 21s-7.8 21-25 21h-66.8v25.3h53.5c17.3 0 25 8.5 25 21s-7.8 21-25 21h-53.5v28.8h69.6c17.3 0 25 8.5 25 21s-7.8 21-25 21H214c-22.3 0-32.8-10.3-32.8-34.3V99.7zM400.7 221.3l-4 13.3c-3 10.3-14.3 14.3-23.3 14.3-13 0-26.3-9.8-26.3-23.3 0-8.3 4.8-21.5 9-33.5l38.3-106.6c5.5-15 13-23.3 27.5-23.3h18c14.5 0 22 8.3 27.5 23.3L505.8 192c4.3 12 9 25.3 9 33.5 0 13.5-13.3 23.3-26.3 23.3-9 0-20.3-4-23.3-14.3l-4-13.3h-60.5zm30.5-101.9h-.5l-19.5 65.8h39.5l-19.5-65.8zM818 89.9c0-16.8 10.5-28.8 28-28.8s28 12 28 28.8v132.4c0 19.8-14.3 27.5-32.5 27.5-15.3 0-23.5-4.3-34.5-22.5l-47.8-78.6h-.5v71.1c0 19.3-10 30-28 30s-28-10.8-28-30V91.9c0-19.5 11.3-30.8 33-30.8 13.8 0 24 5.3 31.3 17.5l50.5 86.6h.5V89.9zM684.2 205.3l-28.9-46.6c20.2-5.1 33-19.5 33-41.8 0-27.5-19.8-50.6-63.8-50.6h-63.8c-24.8 0-34.5 9.3-34.5 33.4v119.1c0 19.3 10.1 30 28.1 30s28.1-10.8 28.1-30V181h20.7l33.7 54.8c6.5 10.3 14.8 12.9 23.8 12.9 15 0 29.3-11.5 29.3-26.5 0-6.2-2.5-11.7-5.7-16.9zM582.5 108h27.8c16.8 0 23.5 5.5 23.5 17.7s-6.8 17.7-23.5 17.7h-27.8V108zM143.4 199.8H78.3l40.1-43.8H47.1L16 190.5C3.5 204.3 0 210.8 0 220.3c0 14 8.8 25.3 28.3 25.3h115.1c17.3 0 26.3-8.2 26.3-22.9-.1-14.8-9.1-22.9-26.3-22.9z"/><path class="st1" d="M169.2 76.4c-1.2-3.3-3.1-6.5-5.9-9L94.9 5.6c-8.9-8-22.6-7.3-30.6 1.5l-.3.4c-8 8.9-7.3 22.6 1.5 30.6l26.6 24.1H36.2C17.4 62.1 8.7 70.5 8.7 84s8.8 21.9 27.5 21.9h56l-36.8 41.7h69.3l34.9-36.9c8.8-9.8 11.5-15.6 11.5-23.8 0-3.7-.7-7.3-1.9-10.5z"/></svg>